<svg version="1.2" xmlns="http://www.w3.org/2000/svg" viewBox="0 0 800 800" width="800" height="800">
	<style>
		.s0 { fill: #ffffff } 
	</style>
	<path id="Path 0" fill-rule="evenodd" class="s0" d="m230.25 134.14c7.03-0.13 7.98 0.09 10.25 2.36 2.41 2.41 2.48 2.84 1.91 11.75-0.47 7.39-0.28 9.65 0.93 11.25 1.14 1.51 2.94 2.08 7.34 2.33 3.24 0.19 12.91-0.84 21.82-2.32 8.82-1.46 22.28-2.89 30-3.2 8.5-0.33 15.57-0.13 18 0.51 2.2 0.58 5.13 1.95 6.5 3.04 2.34 1.86 2.5 2.56 2.5 11.19 0 8.65 0.15 9.33 2.5 11.12 1.38 1.04 4.41 2.33 6.75 2.86 2.34 0.54 10.89 1.89 19 3 8.11 1.12 18.57 2.98 23.25 4.12 4.68 1.15 11.09 3.39 14.25 4.97 4.37 2.19 5.9 3.54 6.38 5.63 0.35 1.51 0.21 3.43-0.31 4.25-0.52 0.83-5.42 4.52-10.88 8.21-5.47 3.69-11.4 8.3-13.19 10.25-1.79 1.95-3.26 4.33-3.28 5.29-0.01 0.96 1 2.75 2.25 3.97 1.26 1.21 7.46 4.3 13.78 6.85 6.32 2.55 13.19 5.49 15.25 6.54 2.06 1.04 5.32 3.24 7.25 4.89 2.56 2.19 3.5 3.81 3.5 6 0 1.95-0.8 3.61-2.29 4.75-1.26 0.96-7.45 4.45-13.75 7.74-6.52 3.42-13.5 7.94-16.19 10.5-3.37 3.22-4.73 5.3-4.75 7.26-0.01 1.92 0.96 3.54 3.23 5.36 1.79 1.43 6.39 4.24 10.23 6.25 3.83 2 8.66 5.22 10.71 7.14 2.31 2.16 3.77 4.46 3.81 6 0.04 1.38-0.77 3.63-1.8 5-1.03 1.38-5.88 5.49-10.79 9.14-4.9 3.65-10.55 8.38-12.55 10.5-2 2.12-6.27 8.12-9.5 13.32-4.15 6.71-7.61 10.9-11.86 14.38-3.3 2.71-7.24 5.54-8.75 6.29-1.51 0.75-3.65 1.37-4.75 1.37-1.1 0-2.79-0.39-3.75-0.87-0.96-0.48-3-3.75-4.53-7.25-1.53-3.51-3.33-7.49-4-8.84-0.67-1.35-2.57-2.88-4.22-3.41-2.5-0.79-4.09-0.43-9.5 2.14q-6.5 3.08-16.5 12.27c-5.5 5.04-11.13 9.6-12.5 10.13-1.64 0.62-3.27 0.58-4.75-0.11-1.24-0.58-2.99-2.52-3.88-4.31-0.9-1.79-2.67-8.2-3.94-14.25-1.27-6.05-2.78-12.24-3.37-13.75-0.58-1.51-1.85-3.15-2.81-3.64-1.04-0.53-2.97-0.51-4.75 0.05-1.65 0.51-4.77 2.37-6.94 4.14-2.17 1.76-8.13 8.26-13.25 14.45-5.12 6.19-10.21 11.7-11.31 12.25-1.1 0.55-2.9 1-4 1-1.18 0-2.81-1.33-3.98-3.25-1.09-1.79-2.64-6.17-3.44-9.75-0.8-3.57-1.96-12.8-2.57-20.5-0.62-7.7-1.75-15.35-2.52-17-0.78-1.65-2.21-3.29-3.2-3.64-0.98-0.36-3.59 0.14-5.79 1.1-2.2 0.96-7.71 4.74-12.25 8.39-6.06 4.89-9.05 6.65-11.25 6.65-2.37 0-3.36-0.69-4.72-3.25-1.32-2.5-1.72-5.77-1.71-14.25 0-6.05 0.6-14.15 1.33-18 0.73-3.85 2.81-13.52 4.62-21.5 1.8-7.98 3.58-16.75 3.94-19.5 0.39-2.87 0.22-6.17-0.4-7.75-0.67-1.74-2.07-2.99-3.81-3.4-1.51-0.35-5.9 0.1-9.75 1.02-3.85 0.91-8.24 1.65-9.75 1.64-1.81-0.01-3.47-0.95-4.86-2.76-1.85-2.41-2.05-3.68-1.59-10.25 0.28-4.12 1.99-13.35 3.78-20.5 1.81-7.21 3.3-15.77 3.34-19.22 0.06-4.94-0.33-6.64-1.92-8.27-1.36-1.39-4.25-2.37-9-3.07-3.85-0.56-8.01-1.67-9.25-2.48-1.24-0.8-2.74-2.7-3.34-4.21-0.59-1.51-0.82-4.66-0.5-7 0.33-2.34 1.86-7.06 3.41-10.5 1.55-3.44 4.36-7.97 6.25-10.08 1.89-2.1 5.23-4.65 7.43-5.67 2.2-1.01 7.38-2.13 11.5-2.48 4.13-0.36 15.82-2.63 26-5.03 10.18-2.41 19.63-4.57 21-4.8 1.38-0.23 5.99-0.48 10.25-0.55zm11.25 47.89c-5.5 1.75-15.4 5.22-22 7.7-6.6 2.49-13.65 5.7-15.67 7.15-2.02 1.44-4.84 4.19-6.27 6.12-1.56 2.1-2.59 4.8-2.58 6.75 0.02 2.53 0.58 3.47 2.52 4.25q2.5 1 8.25 0.01c3.16-0.55 7.66-1 10-1 3.56-0.01 4.52 0.43 5.93 2.74 1.45 2.36 1.52 3.42 0.5 7.5-0.65 2.61-3.84 11.61-7.08 20-3.25 8.39-6.85 18.96-8 23.5-1.16 4.54-2.1 10.84-2.11 14 0 3.47 0.59 6.64 1.5 8 1.43 2.13 2.08 2.24 12.46 2 9.39-0.21 11.21 0.01 12.75 1.53 1.49 1.48 1.79 3.4 1.73 11-0.04 5.07-0.26 15.97-0.5 24.22-0.3 10.39-0.05 16.15 0.82 18.75 0.69 2.06 2.15 4.2 3.25 4.75q2 1 4.5 0c1.38-0.55 7.34-5.56 13.25-11.14 5.91-5.57 13-11.64 15.75-13.49 2.75-1.84 6.35-3.74 8-4.22 1.69-0.49 3.99-0.5 5.25-0.01 1.24 0.47 2.66 1.65 3.17 2.61 0.51 0.96 1.41 7.04 2 13.5 0.71 7.75 1.68 12.76 2.83 14.72 0.96 1.64 2.65 3.19 3.75 3.44 1.1 0.26 3.35-0.1 5-0.79 1.65-0.7 6.6-3.68 11-6.62 4.4-2.95 11.15-6.85 15-8.67 3.85-1.83 9.25-3.8 12-4.38 4.28-0.91 5.79-0.76 10.5 1 3.02 1.13 6.4 2.04 7.5 2.04 1.1 0 4.25-1.3 7-2.88 2.75-1.57 8.26-5.96 12.25-9.74 5.88-5.57 7.25-7.44 7.23-9.87 0-1.65-0.34-3.45-0.75-4-0.4-0.55-1.6-1.68-2.67-2.5-1.07-0.82-6.02-3.11-11-5.07-6.25-2.46-9.49-4.32-10.46-6-0.92-1.6-1.14-3.45-0.64-5.43 0.41-1.65 3.29-5.6 6.39-8.78 3.11-3.18 10.38-9.07 16.15-13.09 5.77-4.02 11.13-8.39 11.9-9.72 0.84-1.45 1.14-3.5 0.75-5.16-0.51-2.15-2.01-3.4-6.9-5.72-3.44-1.64-11.31-4.34-17.5-6-6.19-1.67-12.4-3.82-13.79-4.78-1.4-0.96-2.68-2.2-2.85-2.75-0.16-0.55 0.05-2.35 0.48-4 0.5-1.96 4.41-6.45 11.31-13 7.9-7.5 10.54-10.62 10.54-12.5 0-1.43-0.96-3.2-2.22-4.13-1.22-0.9-4.24-2.24-6.72-2.99-3.08-0.93-9.56-1.32-20.5-1.24-11.54 0.09-20.95 0.85-33.75 2.74-9.76 1.44-19.77 2.62-22.25 2.62-3.3 0-5.14-0.6-6.88-2.25-2.11-2-2.28-2.75-1.57-6.75 0.44-2.47 1.29-5.74 1.88-7.25 0.59-1.51 1.07-4.32 1.07-6.25 0-2.52-0.63-3.92-2.25-5.01-1.55-1.04-4.58-1.47-9.75-1.4-4.12 0.06-10.2 0.71-13.5 1.43-3.3 0.73-10.5 2.76-16 4.51zm385.25-33.97c0.69-0.03 3.61 0.81 6.5 1.88 3.45 1.28 6.82 3.6 9.83 6.75 2.52 2.65 5.48 6.84 6.59 9.31 1.1 2.48 4.31 11.93 7.12 21 2.81 9.07 6.03 20.32 7.15 25 1.13 4.68 2.06 11.43 2.09 15 0.03 5.3-0.38 7.04-4.53 12.3l-9.25-0.65c-8.41-0.59-9.43-0.47-11.25 1.35-1.59 1.59-2 3.33-2 8.5 0 3.57 1.37 14.71 3.05 24.75 1.93 11.55 3.1 22.29 3.19 29.25 0.08 6.05-0.37 12.57-1.01 14.5-0.63 1.93-2.12 4.4-3.29 5.5-1.8 1.69-3.31 1.96-9.54 1.75-6.88-0.23-7.6-0.06-10.26 2.5-1.96 1.89-3.21 4.47-3.99 8.25-0.62 3.02-1.83 11.57-2.68 19-0.85 7.43-2.44 17.77-3.53 23-1.09 5.23-3.32 12.31-4.96 15.75-1.65 3.47-3.98 6.74-5.23 7.35-1.71 0.84-2.82 0.78-4.61-0.25-1.29-0.74-5.34-5.8-9-11.24-3.65-5.44-8.1-11.18-9.89-12.75-1.79-1.57-3.92-2.86-4.75-2.86-0.83 0-2.74 1.28-4.25 2.84-1.51 1.57-3.36 4.6-4.11 6.75-0.74 2.15-3.32 8.64-5.72 14.41-2.39 5.77-5.95 12.41-7.89 14.75-2.72 3.27-4.22 4.25-6.53 4.25-2.23 0-3.61-0.83-5.37-3.25-1.31-1.79-4.78-7.98-7.73-13.75-3.1-6.07-7.26-12.49-9.88-15.23-2.48-2.6-5.42-4.75-6.52-4.78-1.1-0.03-3.12 0.79-4.5 1.84-1.37 1.04-4.52 5.65-7 10.24-2.48 4.59-6.07 10.04-8 12.11-2.2 2.36-4.43 3.77-6 3.8-1.37 0.02-3.4-0.57-4.5-1.31-1.1-0.74-5.45-5.8-9.66-11.25-4.21-5.46-9.39-11.32-11.5-13.03-2.11-1.71-7.66-5.23-12.34-7.82-4.68-2.58-9.56-5.69-10.86-6.89-1.3-1.2-4.27-4.66-6.61-7.68-2.33-3.02-4.92-6.85-5.75-8.5-0.84-1.65-1.36-4.12-1.16-5.5 0.21-1.37 1.5-3.4 2.89-4.5 1.38-1.1 5.53-3.12 9.21-4.5q6.7-2.5 8.13-5c0.91-1.6 1.21-3.76 0.81-6-0.34-1.93-2.09-5.72-3.89-8.44-1.8-2.72-6.9-8.8-11.33-13.5-4.43-4.71-8.6-9.57-9.25-10.81-0.84-1.58-0.89-2.99-0.19-4.75 0.55-1.37 2.8-3.4 5-4.5 2.2-1.1 9.06-3.14 15.25-4.53 6.19-1.4 12.26-3.2 13.5-4 1.24-0.81 2.51-2.03 2.84-2.72 0.32-0.69-0.24-3.04-1.25-5.23-1.01-2.18-4.09-6.2-6.84-8.92-2.75-2.73-8.15-7.43-12-10.46-3.85-3.03-8.26-6.89-9.8-8.57-1.79-1.96-2.69-3.94-2.5-5.47 0.17-1.32 1.43-3.24 2.8-4.27 1.38-1.03 4.98-2.52 8-3.31 3.02-0.8 12.59-2.14 21.25-2.98 8.66-0.85 16.54-1.83 17.5-2.19 0.96-0.36 2.55-1.37 3.53-2.25 0.98-0.88 1.77-2.5 1.75-3.6-0.02-1.1-1-3.57-2.18-5.5-1.18-1.93-4.49-6.43-7.36-10-2.87-3.57-5.73-7.51-6.36-8.75-0.89-1.76-0.81-2.79 0.37-4.75 0.84-1.4 3.16-3.01 5.25-3.65 2.43-0.74 7.63-0.93 14.75-0.55 6.05 0.33 14.6 1.32 19 2.19 4.4 0.87 13.63 2.87 20.5 4.44 6.88 1.58 14.75 3.17 17.5 3.53 2.87 0.39 6.17 0.22 7.75-0.4 1.74-0.67 2.99-2.07 3.4-3.81 0.35-1.51-0.1-5.9-1.02-9.75-0.91-3.85-1.65-8.24-1.64-9.75 0.01-1.72 0.97-3.55 2.57-4.88 2.31-1.92 3.36-2.07 10.75-1.51 4.51 0.34 13.59 1.99 20.19 3.68 6.6 1.68 15.15 3.31 19 3.62 6.44 0.52 7.18 0.37 9.25-1.8 1.23-1.3 2.96-5.06 3.84-8.36 0.88-3.3 2.04-6.61 2.59-7.36 0.54-0.75 1.96-1.73 3.15-2.19 1.2-0.45 2.73-0.85 3.42-0.89zm-37.05 61.44c0.6 8.35 0.49 9.16-1.53 11.25-1.19 1.24-2.96 2.25-3.92 2.26-0.96 0.01-4-0.65-6.75-1.46-2.75-0.8-10.85-3.77-18-6.59-7.15-2.83-17.05-6.22-22-7.55-4.95-1.32-11.7-2.41-15-2.42-3.7 0-6.86 0.57-8.25 1.5-2.12 1.42-2.24 2.11-2 11.59l0.25 10.08-6 5.04c-38.41-1.21-47.32-1.09-50-0.38-2.2 0.59-4.9 2.02-6 3.18-1.93 2.04-1.94 2.22-0.24 5.31 0.97 1.75 3.8 5.22 6.29 7.69 2.49 2.48 7.71 8.1 11.59 12.5 3.88 4.4 8.14 10.14 9.46 12.75 1.32 2.61 2.41 5.54 2.43 6.5 0.02 0.96-0.94 2.65-2.13 3.75-1.61 1.49-4.36 2.21-10.78 2.84-4.74 0.46-11.05 1.36-14.03 2-3.71 0.79-6.01 1.95-7.32 3.66-1.73 2.27-1.78 2.83-0.52 6 0.77 1.93 4.15 7.55 7.5 12.5 3.36 4.95 7.59 12.15 9.4 16 2.57 5.45 3.3 8.33 3.32 13 0.02 4.62-0.49 6.75-2.22 9.25-1.24 1.79-2.23 4.04-2.21 5 0.02 0.96 0.81 3.18 1.75 4.92 0.94 1.74 4.86 6.85 8.71 11.35 3.85 4.51 8.24 9.04 9.75 10.09 1.51 1.04 4.1 1.89 5.75 1.89 2.05 0 3.72-0.87 5.28-2.75 1.25-1.51 3.76-6.57 5.57-11.25 1.8-4.68 4.04-9.3 4.97-10.28 0.92-0.98 2.69-1.77 3.93-1.75 1.24 0.02 3.49 0.66 5 1.43 1.51 0.77 5.24 4.03 8.29 7.25 3.04 3.22 8.55 10.24 12.25 15.6 3.69 5.36 7.61 10.2 8.71 10.75 1.1 0.55 2.9 1 4 1 1.1 0 3.03-1.24 4.29-2.75 1.26-1.51 3.24-5.23 4.41-8.25 1.16-3.02 3.11-9.55 4.33-14.5 1.22-4.95 3-10.57 3.95-12.5 0.95-1.93 2.47-3.84 3.38-4.25 0.9-0.41 3.1-0.13 4.89 0.62 1.79 0.76 6.85 5.06 11.25 9.57 4.4 4.51 9.12 8.81 10.5 9.54 1.65 0.89 3.1 1.03 4.25 0.43 0.96-0.5 2.42-2.26 3.25-3.91 0.83-1.65 1.91-6.94 2.41-11.75 0.55-5.31 0.54-13.66-0.03-21.25-0.51-6.87-2.04-19.48-3.4-28-1.35-8.52-2.48-17.98-2.5-21-0.03-4.01 0.44-5.97 1.74-7.22 0.98-0.95 2.79-1.74 4.03-1.75 1.24-0.02 5.62 0.87 9.75 1.97 4.12 1.1 8.4 1.77 9.5 1.5 1.1-0.27 2.51-1.51 3.14-2.75 0.63-1.24 1.1-5.17 1.05-8.75-0.05-3.57-1.21-10.77-2.57-16-1.36-5.22-4.56-14.9-7.11-21.5-2.56-6.6-6.3-15.1-8.33-18.9-2.02-3.79-5.37-8.4-7.43-10.25-2.06-1.84-4.82-3.35-6.14-3.35-1.31 0-2.87 0.56-3.47 1.25-0.72 0.82-0.87 4.32-0.44 10.25zm-330.6 175.5c2.12 0 3.54 0.88 5.27 3.25 1.31 1.79 4.88 8.2 7.95 14.25 3.08 6.1 7.26 12.7 9.37 14.81 2.1 2.09 4.94 4.04 6.31 4.32 1.39 0.29 3.39-0.12 4.5-0.92 1.1-0.8 4.48-5.83 7.5-11.19 3.02-5.36 6.96-11.04 8.75-12.63 1.79-1.59 4.26-2.89 5.5-2.9 1.24 0 3.26 0.67 4.5 1.5 1.24 0.83 5.12 5.45 8.62 10.26 3.51 4.81 8.83 11 11.82 13.75 3 2.75 8.75 6.8 12.77 9 4.02 2.2 9.16 6.05 11.43 8.55 2.26 2.51 5.58 6.78 7.38 9.5 1.8 2.72 3.55 6.52 3.88 8.45 0.52 2.99 0.19 3.87-2.27 6.06-1.58 1.4-5.92 3.54-9.63 4.75-4.19 1.36-7.32 3.04-8.26 4.44-0.83 1.24-1.51 3.15-1.52 4.25 0 1.1 1.32 4.7 2.94 8 1.72 3.5 6.58 9.96 11.65 15.5 4.78 5.23 9.31 10.74 10.06 12.25 0.91 1.8 1.09 3.53 0.53 5-0.47 1.24-2.83 3.21-5.25 4.39-2.42 1.18-9.57 3.18-15.9 4.45-8.74 1.75-12.04 2.85-13.75 4.61-1.96 2-2.11 2.72-1.2 5.55 0.57 1.79 2.48 5.02 4.25 7.18 1.76 2.16 7.47 7.62 12.7 12.13 5.23 4.5 10.46 9.26 11.62 10.57 1.17 1.3 2.35 3.04 2.62 3.87 0.27 0.83 0.1 2.29-0.38 3.25-0.47 0.96-2.21 2.42-3.86 3.25-1.65 0.83-5.14 1.97-7.75 2.55-2.61 0.58-12.4 1.7-21.75 2.5-11.3 0.97-17.75 1.96-19.25 2.96-1.56 1.03-2.25 2.48-2.25 4.74-0.01 1.79 1.05 4.83 2.35 6.75 1.3 1.92 4.68 6.54 7.51 10.25 2.83 3.71 5.15 7.76 5.17 9 0.02 1.24-0.93 3.15-2.11 4.25-1.72 1.6-3.86 2.07-10.78 2.37-4.75 0.2-12.01-0.18-16.14-0.84-4.12-0.66-15.15-2.99-24.5-5.18-9.35-2.18-19.48-4.39-22.5-4.9-3.53-0.6-6.67-0.58-8.75 0.06-2.39 0.73-3.4 1.72-3.8 3.74-0.31 1.51 0.14 5.79 1 9.5 0.85 3.71 1.56 8.21 1.58 10 0.02 2.07-0.75 3.98-2.11 5.25-1.74 1.62-3.4 1.97-8.78 1.86-4-0.08-12.42-1.62-21.14-3.87-8.06-2.07-17.23-3.79-20.64-3.86-4.87-0.1-6.59 0.28-8.31 1.87-1.19 1.1-3.04 5.04-4.11 8.75-1.27 4.43-2.71 7.27-4.19 8.26-1.24 0.83-3.26 1.5-4.5 1.5-1.24-0.01-4.61-0.92-7.5-2.04-2.89-1.12-6.71-3.14-8.5-4.5-1.81-1.38-4.58-5.24-6.26-8.72-1.66-3.44-5.49-15.02-8.51-25.75-3.03-10.73-6.18-23.1-7.01-27.5-0.82-4.4-1.5-9.58-1.5-11.5 0-1.92 0.45-4.96 1.01-6.75 0.56-1.79 1.92-3.7 3.02-4.25 1.17-0.58 5.63-0.75 10.75-0.41 6.96 0.47 9.16 0.28 10.75-0.92 1.51-1.15 2.08-2.95 2.33-7.35 0.19-3.24-0.84-12.91-2.32-21.82-1.46-8.82-2.89-22.28-3.2-30-0.35-8.9-0.14-15.55 0.57-18.25 0.62-2.34 2.25-5.37 3.62-6.75 2.25-2.25 3.29-2.5 10.25-2.46 6.78 0.04 8.03-0.24 10.03-2.25 1.26-1.26 2.71-3.64 3.24-5.29 0.52-1.65 2.06-10.65 3.41-20 1.34-9.35 3.4-20.82 4.56-25.5 1.16-4.68 3.34-10.98 4.85-14 1.88-3.78 3.6-5.81 5.49-6.5 1.87-0.68 3.3-0.66 4.46 0.05 0.94 0.58 4.64 5.44 8.21 10.81 3.58 5.37 8.19 11.31 10.25 13.2 2.06 1.89 4.45 3.44 5.3 3.44 0.85 0 2.56-1.01 3.8-2.25 1.24-1.24 3.72-5.85 5.52-10.25 1.8-4.4 4.74-11.15 6.53-15 1.78-3.85 4.72-8.69 6.52-10.75 2.38-2.72 4.07-3.75 6.18-3.75zm-9.18 31.75c-1.14 2.61-3.44 9.48-5.1 15.25-1.67 5.77-3.61 11.63-4.31 13-0.7 1.38-2 3.06-2.89 3.75-0.9 0.69-2.84 1-4.37 0.69-1.79-0.36-6.23-4.2-12.75-11.03-8.83-9.25-10.35-10.45-13-10.2-2.29 0.22-3.41 1.11-4.74 3.79-0.96 1.93-2.24 6.43-2.85 10-0.69 3.99-0.88 11.7-0.5 20 0.34 7.43 1.73 21.15 3.08 30.5 1.36 9.35 2.48 18.91 2.49 21.25 0.01 2.34-0.36 5.26-0.83 6.5-0.47 1.24-1.94 2.56-3.25 2.93-1.38 0.4-5.6-0.14-9.9-1.26-4.12-1.07-8.29-1.94-9.25-1.93-0.96 0-2.65 0.91-3.75 2.01-1.64 1.64-2 3.32-1.99 9.25 0.01 3.99 0.7 10.17 1.53 13.75 0.83 3.58 2.66 10.1 4.07 14.5 1.41 4.4 4.87 13.63 7.69 20.5 4.2 10.23 6.05 13.45 10.17 17.73 2.76 2.88 5.93 5.26 7.03 5.3 1.1 0.03 2.56-0.52 3.23-1.24 0.84-0.88 1.16-4.36 1-10.88-0.17-7.34 0.12-10.02 1.27-11.37 1.18-1.4 2.56-1.68 6.5-1.31 2.87 0.26 12.01 3.24 21.5 6.99 9.08 3.6 19.2 7.31 22.5 8.25 3.3 0.94 8.93 1.98 12.5 2.31 5.42 0.5 6.99 0.27 9.43-1.34l2.92-1.94c-1.2-15.58-1.02-18.16 0.15-20.5 1.13-2.27 2.41-3.16 5.25-3.64 2.06-0.36 8.93-0.25 15.25 0.25 6.33 0.49 16.9 0.89 23.5 0.89 8.52 0 12.97-0.43 15.33-1.5 1.83-0.83 3.56-2.4 3.85-3.5 0.29-1.1 0.08-2.9-0.45-4-0.54-1.1-5.37-6.73-10.72-12.5-5.36-5.77-11.26-12.75-13.11-15.5-1.86-2.75-3.77-6.35-4.25-8-0.49-1.69-0.5-3.99-0.01-5.25 0.47-1.24 1.65-2.65 2.61-3.14 0.96-0.5 7.04-1.4 13.5-2 6.46-0.61 13.1-1.78 14.75-2.61 1.65-0.82 3.24-2.29 3.53-3.25 0.29-0.96 0.03-3.1-0.57-4.75-0.6-1.65-3.7-7.05-6.9-12-3.19-4.95-6.93-11.25-8.3-14-1.37-2.75-3.06-6.8-3.76-9-0.71-2.2-1.24-5.8-1.2-8 0.05-2.31 1.27-6.26 2.89-9.35l2.81-5.35c-3.54-6.43-7.62-11.9-11.34-16.3-3.72-4.4-8.32-9.03-10.21-10.28-1.9-1.25-4.01-2.26-4.7-2.25-0.69 0.02-2.39 1.04-3.77 2.28-1.39 1.24-4.36 6.52-6.59 11.75-2.24 5.23-4.82 10.3-5.73 11.28-0.91 0.98-2.78 1.78-4.16 1.78-1.37 0-4.3-1.28-6.5-2.85-2.2-1.57-5.83-5.07-8.07-7.78-2.25-2.71-6.97-9.15-10.5-14.31-3.54-5.16-7.22-9.77-8.18-10.25-0.96-0.48-2.65-0.87-3.75-0.87-1.1 0-2.9 0.9-4 2-1.1 1.1-2.93 4.14-4.08 6.75zm263.83 5.24c0.69 0.01 2.52 1.25 4.07 2.76 2.03 1.97 3.41 5.01 4.89 10.75 1.13 4.4 2.63 10.7 3.33 14 0.79 3.77 2.14 6.84 3.61 8.25 1.65 1.58 3.02 2.06 4.6 1.61 1.24-0.35 4.16-1.92 6.5-3.5 2.34-1.57 8.66-8.15 14.04-14.61 5.39-6.46 11.12-12.37 12.75-13.13 2.8-1.31 3.1-1.23 5.54 1.5 1.61 1.81 3.18 5.48 4.2 9.88 0.9 3.85 2.13 13.3 2.73 21 0.6 7.7 1.52 15.69 2.04 17.75 0.62 2.44 1.83 4.19 3.47 5 2.12 1.05 3.09 0.97 6-0.5 1.92-0.96 7.08-4.45 11.48-7.75 4.4-3.3 9.01-6.01 10.25-6.03 1.24-0.02 3.15 0.93 4.25 2.11 1.63 1.74 2.07 3.85 2.37 11.28 0.2 5.03-0.18 12.52-0.84 16.64-0.67 4.13-2.99 15.15-5.18 24.5-2.18 9.35-4.39 19.48-4.9 22.5-0.6 3.53-0.58 6.67 0.06 8.75 0.73 2.39 1.72 3.4 3.74 3.8 1.51 0.31 5.79-0.14 9.5-1 3.71-0.85 8.21-1.56 10-1.58 2.07-0.02 3.98 0.75 5.25 2.11 1.62 1.74 1.97 3.39 1.85 8.78-0.09 3.96-1.81 13.29-4.26 23.14-2.26 9.08-4.09 18.75-4.07 21.5 0.03 2.75 0.59 5.75 1.26 6.67 0.67 0.91 3.81 2.83 6.97 4.25 3.59 1.61 6.07 3.42 6.6 4.83 0.46 1.24 0.46 3.83-0.02 5.75-0.47 1.92-2.34 5.3-4.16 7.5-2.34 2.84-6.31 5.5-13.73 9.2-5.74 2.86-15.16 6.83-20.94 8.83-5.77 1.99-14.32 4.48-19 5.52-4.67 1.05-10.75 1.93-13.5 1.96-3.75 0.05-5.72-0.51-10.8-4.51l0.65-9.25c0.59-8.41 0.47-9.43-1.35-11.25-1.61-1.61-3.33-2-8.75-1.99-3.71 0-13.27 1.13-21.25 2.51-7.97 1.37-19 2.92-24.5 3.43-5.5 0.52-12.92 0.58-16.5 0.14-3.57-0.44-7.4-1.26-8.5-1.83-1.1-0.56-2.67-1.82-3.5-2.79-1.08-1.27-1.43-3.68-1.25-8.62 0.23-6.28 0.02-7.09-2.5-9.72-1.51-1.58-4.55-3.37-6.75-3.99-2.2-0.61-12.77-2.23-23.5-3.6-10.72-1.36-22.76-3.4-26.75-4.51-3.99-1.12-9.5-3.15-12.25-4.53-2.75-1.37-5.5-3.51-6.1-4.75-0.84-1.71-0.78-2.81 0.25-4.59 0.74-1.29 5.63-5.17 10.85-8.62 5.23-3.46 10.67-7.58 12.1-9.16 1.44-1.59 2.9-3.67 3.25-4.63 0.41-1.1-0.21-2.77-1.68-4.5-1.51-1.78-6.2-4.3-13.25-7.14-6.01-2.41-13.06-5.45-15.67-6.75-2.61-1.3-6.32-3.71-8.25-5.36-2.56-2.19-3.5-3.81-3.5-6 0-2.23 0.83-3.61 3.25-5.37 1.79-1.31 8.2-4.88 14.25-7.93 6.08-3.07 12.9-7.37 15.25-9.62 2.34-2.25 4.25-4.98 4.25-6.08 0-1.1-0.45-2.9-1-4-0.55-1.1-5.39-4.55-10.75-7.67-5.36-3.12-11.21-7.17-13-9-1.79-1.83-3.25-4.34-3.26-5.58 0-1.24 0.67-3.26 1.5-4.5 0.83-1.24 5.86-5.51 11.18-9.5 5.32-3.99 11.21-9.05 13.1-11.25 1.89-2.2 5.14-7.6 7.22-12 2.77-5.83 5.25-9.33 9.15-12.89 2.95-2.69 7.61-6.42 10.36-8.27 2.75-1.86 6.69-3.82 8.75-4.36 3.45-0.9 3.97-0.75 6.5 1.94 1.54 1.63 3.74 6.04 5 10 1.69 5.31 2.94 7.5 5 8.75 1.93 1.17 3.79 1.47 6.25 1 1.93-0.36 5.86-2.24 8.75-4.17 2.89-1.92 8.74-6.8 13-10.82 4.26-4.03 8.88-8.08 10.25-9.01 1.38-0.93 3.06-1.68 3.75-1.68zm-21.75 30.49c-4.67 3.2-11.65 7.33-15.5 9.18-3.85 1.84-9.25 3.66-12 4.03-4.66 0.63-5.37 0.42-10.5-3.09-4.38-3-6.01-3.61-8-2.99-1.37 0.42-5.65 3.33-9.5 6.47-3.85 3.14-9.07 7.66-11.6 10.06-2.53 2.4-5.37 5.49-6.33 6.86-1.11 1.61-1.52 3.48-1.15 5.25 0.32 1.51 2.04 3.81 3.83 5.1 1.79 1.29 6.85 3.75 11.25 5.47 4.4 1.72 8.78 3.92 9.72 4.9 0.95 0.98 1.75 2.91 1.78 4.28 0.03 1.38-1.22 4.3-2.79 6.5-1.57 2.2-5.07 5.83-7.78 8.07-2.71 2.25-9.15 6.95-14.31 10.45-6.41 4.36-9.78 7.35-10.64 9.43-1.07 2.59-1.01 3.4 0.38 5.39 0.9 1.29 3.89 3.39 6.64 4.67 2.75 1.28 10.18 3.76 16.5 5.52 6.33 1.76 12.63 3.76 14 4.46 1.38 0.7 3.06 2 3.75 2.89 0.76 0.99 0.98 2.69 0.56 4.37-0.38 1.51-5.1 7.36-10.5 13-5.39 5.64-9.81 10.92-9.81 11.75 0 0.83 1.01 2.4 2.25 3.5 1.24 1.09 4.5 2.53 7.25 3.18 2.75 0.66 11.08 1.17 18.5 1.14 7.43-0.03 18.9-0.81 25.5-1.74 6.6-0.93 15.83-2.34 20.5-3.14 4.68-0.81 10.75-1.46 13.5-1.46 2.79 0 5.99 0.67 7.25 1.51 1.24 0.83 2.25 2.52 2.25 3.76 0 1.24-0.9 5.51-2 9.5-1.1 3.99-2.01 7.81-2.02 8.5-0.01 0.69 0.56 2.07 1.25 3.07 0.7 1 3.07 2.17 5.27 2.59 2.2 0.43 6.93 0.4 10.5-0.06 3.58-0.46 10.33-2.01 15-3.44 4.68-1.43 12.55-4.32 17.5-6.41 4.95-2.09 10.8-4.83 13-6.08 2.2-1.25 5.91-3.76 8.25-5.59 2.34-1.83 4.48-4.23 4.75-5.33 0.28-1.1-0.06-2.7-0.75-3.54-0.91-1.13-3.08-1.54-8-1.5-3.71 0.02-7.87-0.52-9.24-1.21-1.37-0.69-2.68-2.15-2.92-3.25-0.24-1.1 0.2-4.36 0.98-7.25 0.79-2.89 3.93-11.44 6.99-19 3.06-7.56 6.67-18.02 8.02-23.25 1.35-5.23 2.45-11.52 2.45-14-0.01-2.71-0.71-5.45-1.77-6.89-1.71-2.32-2.01-2.36-11.26-1.66-9.41 0.72-9.52 0.7-12-1.94-2.19-2.33-2.5-3.57-2.5-9.84 0-3.94 0.61-13.69 1.36-21.67 0.75-7.98 1.07-16.75 0.71-19.5-0.35-2.75-1.08-6.46-1.61-8.25-0.53-1.79-1.86-3.7-2.96-4.25-1.36-0.68-2.88-0.65-4.75 0.1-1.51 0.61-6.57 4.79-11.25 9.28-4.67 4.5-10.52 9.8-13 11.78-2.47 1.98-6.41 4.55-8.75 5.72-2.34 1.17-5.04 2.13-6 2.15-0.96 0.02-2.65-0.94-3.75-2.13-1.49-1.6-2.22-4.38-2.86-10.78-0.47-4.74-1.25-10.98-1.75-13.87-0.67-3.97-1.56-5.75-3.64-7.28-1.51-1.12-2.97-2.01-3.25-1.97-0.27 0.05-1.85 0.66-3.5 1.37-1.65 0.71-6.82 3.91-11.5 7.11z"/>
</svg>